<!DOCTYPE svg PUBLIC "-//W3C//DTD SVG 20010904//EN" "http://www.w3.org/TR/2001/REC-SVG-20010904/DTD/svg10.dtd">
<svg version="1.0" xmlns="http://www.w3.org/2000/svg" width="210px" height="145px" viewBox="0 0 2100 1450" preserveAspectRatio="xMidYMid meet">
<g id="layer102" fill="none" stroke="#020202">
 <path d="M0 725 l0 -725 1050 0 1050 0 0 725 0 725 -1050 0 -1050 0 0 -725z m1004 164 c38 -6 105 -9 148 -6 43 3 78 3 78 -1 0 -3 -11 -20 -25 -38 -14 -18 -25 -38 -25 -44 0 -15 69 -44 175 -75 115 -34 172 -64 223 -119 47 -51 53 -73 20 -78 -21 -3 -19 -6 17 -29 50 -33 74 -59 53 -59 -8 0 -19 5 -26 12 -27 27 -20 -3 13 -52 33 -50 42 -70 29 -70 -3 0 -40 32 -82 71 -86 80 -211 166 -304 209 l-63 29 38 1 c41 0 77 15 77 30 0 6 -12 10 -27 10 -26 0 -53 14 -110 56 -14 10 -23 12 -23 5 0 -6 -9 -20 -20 -31 -11 -11 -20 -30 -20 -43 0 -19 -10 -25 -67 -42 -100 -28 -306 -135 -408 -212 -49 -37 -129 -105 -176 -150 -47 -46 -89 -83 -92 -83 -3 0 3 25 14 57 20 60 56 114 98 150 24 21 24 23 6 23 -11 0 -40 -11 -64 -25 -49 -28 -51 -29 -51 -15 0 17 72 90 109 111 l36 20 -42 -5 c-24 -2 -43 -1 -43 3 0 15 58 87 104 129 62 58 114 79 256 107 124 25 190 47 190 64 0 5 -24 24 -53 42 -30 17 -60 41 -66 52 -12 18 -11 19 11 14 12 -3 54 -11 92 -18z"/>
 </g>

</svg>